<?xml version="1.0" standalone="no"?>
<!DOCTYPE svg PUBLIC "-//W3C//DTD SVG 20010904//EN"
 "http://www.w3.org/TR/2001/REC-SVG-20010904/DTD/svg10.dtd">
<svg version="1.0" xmlns="http://www.w3.org/2000/svg"
 width="1280.000000pt" height="1280.000000pt" viewBox="0 0 1280.000000 1280.000000"
 preserveAspectRatio="xMidYMid meet">
<metadata>
Created by potrace 1.14, written by Peter Selinger 2001-2017
</metadata>
<g transform="translate(0.000000,1280.000000) scale(0.100000,-0.100000)"
fill="#000000" stroke="none">
<path d="M8357 11314 c-1 -1 -41 -5 -89 -9 -49 -3 -96 -8 -107 -10 -30 -5 -90
-15 -166 -26 -38 -5 -105 -16 -149 -24 -43 -8 -111 -15 -151 -15 -43 0 -99 -8
-136 -19 -59 -18 -281 -80 -304 -85 -5 -1 -37 -8 -70 -15 -86 -19 -153 -37
-205 -56 -25 -9 -52 -18 -60 -20 -8 -2 -15 -4 -15 -5 0 -1 -7 -3 -15 -5 -32
-7 -258 -95 -307 -119 -29 -14 -55 -26 -58 -26 -2 0 -44 -18 -92 -41 -139 -65
-145 -67 -213 -89 -77 -26 -274 -122 -343 -167 l-49 -33 -31 23 c-47 35 -192
77 -317 92 -30 4 -71 9 -90 11 -19 3 -50 15 -70 28 -31 21 -50 25 -150 29 -63
3 -183 14 -267 25 -83 11 -168 18 -190 16 -62 -5 -146 -14 -178 -19 -16 -3
-50 -7 -75 -9 -81 -9 -214 -26 -240 -31 -14 -2 -43 -6 -65 -9 -88 -10 -115
-18 -195 -56 -23 -11 -66 -18 -140 -25 -141 -12 -168 -18 -246 -56 -45 -21
-90 -39 -100 -39 -11 0 -33 -8 -49 -19 -29 -17 -81 -37 -121 -46 -106 -23
-298 -113 -358 -167 -11 -10 -23 -18 -26 -18 -4 0 -18 -10 -31 -21 -13 -12
-83 -50 -155 -85 -104 -50 -137 -70 -163 -103 -18 -23 -37 -41 -42 -41 -9 0
-183 -115 -211 -140 -9 -8 -37 -31 -63 -50 -61 -46 -69 -53 -177 -152 -51 -46
-122 -111 -158 -143 -129 -117 -144 -131 -219 -205 -42 -41 -114 -122 -161
-180 -118 -146 -118 -146 -181 -214 -53 -57 -96 -107 -162 -187 -45 -55 -221
-292 -236 -319 -8 -14 -48 -79 -89 -145 -96 -155 -161 -282 -164 -320 -2 -25
-52 -131 -132 -280 -20 -38 -57 -124 -86 -200 -13 -33 -31 -78 -40 -100 -9
-22 -26 -65 -38 -95 -11 -30 -41 -109 -67 -175 -25 -66 -49 -142 -52 -169 -3
-27 -16 -74 -29 -103 -13 -29 -24 -60 -24 -67 0 -8 -13 -54 -29 -103 -15 -48
-40 -128 -55 -178 -15 -49 -33 -108 -41 -130 -8 -22 -17 -53 -19 -70 -3 -16
-8 -41 -11 -55 -3 -14 -7 -41 -10 -60 -2 -19 -12 -88 -23 -153 -16 -104 -20
-212 -9 -272 2 -11 -5 -51 -16 -90 -37 -133 -23 -600 29 -975 22 -158 27 -194
40 -260 3 -14 7 -38 10 -55 3 -16 12 -61 20 -100 8 -38 17 -81 20 -95 19 -96
25 -129 29 -156 2 -17 15 -62 29 -100 13 -38 34 -96 46 -129 12 -33 25 -69 30
-80 5 -11 21 -51 35 -90 54 -142 80 -202 117 -263 21 -34 38 -64 38 -67 0 -7
137 -201 194 -275 47 -62 58 -75 123 -146 15 -17 48 -54 73 -83 25 -29 55 -63
67 -76 11 -13 52 -64 89 -112 287 -371 536 -564 974 -755 118 -51 308 -125
415 -160 60 -19 75 -24 117 -33 13 -3 48 -10 78 -17 30 -6 57 -12 60 -13 31
-6 83 -16 115 -20 22 -4 56 -10 75 -15 19 -5 114 -21 210 -35 96 -14 189 -29
205 -31 17 -3 44 -7 60 -9 17 -2 53 -6 80 -10 96 -12 110 -14 165 -19 30 -4
75 -9 100 -13 66 -9 636 -10 695 0 28 4 64 9 80 12 17 2 41 6 55 9 14 3 41 9
60 12 19 3 62 13 95 21 33 8 71 17 85 20 78 14 319 80 414 113 400 138 834
325 986 424 19 13 78 49 130 81 107 66 472 306 480 316 3 3 37 28 77 56 40 27
93 67 119 89 75 63 393 384 464 469 14 17 38 46 54 65 60 73 112 134 131 155
11 12 36 41 55 66 80 102 90 109 134 105 23 -3 73 -7 111 -11 39 -4 77 -8 85
-10 94 -23 778 -24 898 0 10 1 45 6 77 10 33 3 83 10 110 16 28 5 66 11 85 13
19 2 55 9 80 15 25 5 59 12 77 15 51 9 397 97 408 104 6 4 18 8 28 9 10 2 87
26 170 54 175 58 337 135 520 246 71 43 136 83 145 88 91 55 335 226 365 257
10 10 21 18 25 18 4 0 18 10 32 23 14 12 63 54 110 94 119 100 480 468 670
683 142 161 298 369 384 510 58 95 216 409 216 428 0 6 7 23 15 39 23 43 61
134 75 178 7 22 16 45 20 50 10 13 134 380 156 460 23 85 61 262 69 315 3 25
8 52 10 60 4 16 9 51 21 135 3 28 8 59 10 70 2 10 6 51 10 90 3 38 8 78 10 89
17 91 24 539 11 691 -10 115 -15 167 -21 201 -3 16 -8 47 -11 69 -62 408 -189
821 -295 955 -16 20 -45 65 -64 100 -19 37 -69 100 -118 149 -46 47 -115 124
-153 171 -94 114 -249 285 -309 340 -47 43 -106 102 -266 265 -81 82 -95 93
-222 160 -312 167 -746 358 -908 400 -274 72 -370 96 -395 100 -16 3 -38 8
-47 11 -9 3 -25 6 -35 8 -10 2 -36 9 -58 14 -22 6 -56 13 -75 16 -19 3 -66 12
-105 20 -38 8 -88 17 -109 20 -21 4 -48 8 -60 11 -58 12 -108 18 -181 20 -44
1 -98 4 -120 8 -39 6 -87 12 -190 22 -27 3 -68 8 -90 11 -35 5 -593 13 -598 8z"/>
</g>
</svg>
